 
http://www.imdb.com/title/tt2231554/



A film student who is obsessed with the movie Grave Encounters sets out with his friends to visit the psychiatric hospital depicted in the original film. 



Director:
 John Poliquin 

Writer:
 The Vicious Brothers

Stars:
 Richard Harmon, Shawn C. Phillips, Jennica Fulton

Genres:
 Horror 

Country:
Canada|USA

Language:
English 



Format                                   : AVI
Format/Info                              : Audio Video Interleave
File size                                : 704 MiB
Duration                                 : 1h 34mn
Overall bit rate                         : 1 040 Kbps

Video
ID                                       : 0
Format                                   : MPEG-4 Visual
Format profile                           : Simple@L3
Format settings, BVOP                    : No
Format settings, QPel                    : No
Format settings, GMC                     : No warppoints
Format settings, Matrix                  : Default (H.263)
Codec ID                                 : XVID
Codec ID/Hint                            : XviD
Duration                                 : 1h 34mn
Source duration                          : 1h 34mn
Bit rate                                 : 899 Kbps
Width                                    : 624 pixels
Height                                   : 352 pixels
Display aspect ratio                     : 16:9
Frame rate                               : 25.000 fps
Color space                              : YUV
Chroma subsampling                       : 4:2:0
Bit depth                                : 8 bits
Scan type                                : Progressive
Compression mode                         : Lossy
Bits/(Pixel*Frame)                       : 0.164
Stream size                              : 609 MiB (86%)
Writing library                          : XviD 1.1.2 (UTC 2006-11-01)

Audio
ID                                       : 1
Format                                   : MPEG Audio
Format version                           : Version 1
Format profile                           : Layer 3
Mode                                     : Joint stereo
Mode extension                           : MS Stereo
Codec ID                                 : 55
Codec ID/Hint                            : MP3
Duration                                 : 1h 34mn
Bit rate mode                            : Constant
Bit rate                                 : 128 Kbps
Channel(s)                               : 2 channels
Sampling rate                            : 48.0 KHz
Compression mode                         : Lossy
Stream size                              : 86.7 MiB (12%)
Alignment                                : Split accross interleaves
Interleave, duration                     : 24 ms (0.60 video frame)
Writing library                          : LAME3.98



 
http://bayimg.com/jajlJaAeh
 
http://bayimg.com/KajLdAAEh
 
http://bayimg.com/kajLeAaeh